<?xml version="1.0" standalone="no"?>
<!DOCTYPE svg PUBLIC "-//W3C//DTD SVG 20010904//EN"
 "http://www.w3.org/TR/2001/REC-SVG-20010904/DTD/svg10.dtd">
<svg version="1.0" xmlns="http://www.w3.org/2000/svg"
 width="512.000000pt" height="512.000000pt" viewBox="0 0 512.000000 512.000000"
 preserveAspectRatio="xMidYMid meet">

<g transform="translate(0.000000,512.000000) scale(0.100000,-0.100000)"
fill="#000000" stroke="none">
<path d="M2960 5109 c-525 -12 -852 -34 -1303 -86 l-228 -26 -49 27 c-90 49
-153 56 -525 56 -187 0 -368 -5 -403 -10 -188 -27 -343 -182 -373 -372 -6 -39
-9 -411 -7 -978 3 -870 4 -917 22 -965 40 -106 127 -210 213 -253 97 -50 121
-52 542 -52 386 1 398 1 463 23 l67 23 47 -80 c68 -118 114 -176 211 -269 47
-45 119 -126 160 -181 182 -243 412 -685 620 -1196 l56 -135 2 -160 c4 -258
53 -380 182 -445 42 -22 61 -25 143 -24 184 2 328 61 455 189 158 157 217 353
194 638 -12 153 -36 261 -111 512 -77 258 -106 383 -114 490 -6 69 -4 85 7 85
8 0 83 -14 167 -30 628 -124 1111 -78 1358 128 66 54 140 158 167 232 42 116
43 271 1 394 l-15 44 41 63 c49 76 88 196 96 293 10 123 -34 272 -115 390
l-31 44 20 78 c25 96 26 242 4 333 -28 111 -97 232 -189 331 -32 34 -32 37
-33 135 -2 157 -38 265 -127 383 -154 203 -463 337 -860 371 -131 12 -275 12
-755 0z m867 -304 c274 -46 473 -149 546 -282 42 -79 51 -140 37 -247 -7 -51
-10 -105 -6 -121 4 -17 43 -64 95 -114 60 -60 97 -105 117 -146 27 -55 29 -68
29 -170 0 -99 -3 -117 -29 -175 -39 -89 -34 -143 21 -208 62 -73 92 -127 109
-194 27 -105 -1 -202 -90 -311 -78 -96 -81 -117 -31 -226 110 -244 1 -417
-300 -478 -72 -14 -135 -18 -320 -17 -252 0 -329 9 -624 69 -96 19 -190 35
-210 35 -145 0 -229 -103 -239 -290 -8 -161 28 -351 124 -659 91 -293 120
-466 103 -619 -15 -139 -61 -230 -147 -293 -44 -33 -148 -69 -196 -69 -32 0
-36 3 -43 37 -4 21 -7 104 -6 186 l3 147 -66 168 c-95 240 -201 477 -320 713
-189 377 -340 603 -529 794 -122 123 -177 204 -228 334 -28 73 -28 74 -17 180
8 74 11 373 8 993 l-3 886 45 6 c269 35 640 63 990 76 607 22 1028 20 1177 -5z
m-2591 -34 c25 -12 50 -33 65 -57 l24 -39 0 -917 c0 -914 0 -917 -21 -945 -11
-15 -36 -38 -54 -50 -33 -23 -36 -23 -404 -23 -423 0 -421 0 -463 80 l-23 43
0 898 c0 612 3 907 11 926 6 15 20 39 32 52 45 49 58 50 437 50 325 1 358 -1
396 -18z"/>
</g>
</svg>
